<svg width="17" height="17" viewBox="0 0 17 17" fill="none" xmlns="http://www.w3.org/2000/svg">
<path fill-rule="evenodd" clip-rule="evenodd" d="M5.54273 1.13669C5.7751 0.647032 6.27555 0.306763 6.85566 0.306763H10.1754C10.7546 0.306763 11.2551 0.647032 11.4883 1.13669C12.0551 1.14167 12.4975 1.16739 12.8925 1.32176C13.3641 1.50623 13.7743 1.81972 14.076 2.22638C14.3806 2.63553 14.5233 3.1617 14.72 3.88457L14.7507 3.99744L15.2404 5.79588C15.5672 5.96014 15.8535 6.19484 16.0786 6.48306C16.5948 7.14451 16.6861 7.93211 16.5948 8.83506C16.5052 9.71146 16.2297 10.8153 15.8844 12.1971L15.862 12.2842C15.6437 13.1581 15.4661 13.8677 15.2562 14.4213C15.0354 14.9989 14.7565 15.472 14.2959 15.8313C13.8362 16.1907 13.3092 16.3459 12.6958 16.4206C12.1074 16.4903 11.3763 16.4903 10.4758 16.4903H6.55523C5.65476 16.4903 4.92277 16.4903 4.33518 16.4197C3.72104 16.3467 3.19487 16.1907 2.73426 15.8305C2.27448 15.472 1.99563 14.9989 1.77487 14.4213C1.56407 13.8677 1.38729 13.1581 1.16902 12.2842L1.14662 12.1971C0.801367 10.8153 0.525003 9.71146 0.436201 8.83589C0.344909 7.93128 0.436201 7.14451 0.951584 6.48306C1.18645 6.18263 1.4678 5.96021 1.78981 5.79588L2.27946 3.99744L2.311 3.88457C2.50769 3.1617 2.65044 2.63553 2.95502 2.22555C3.25689 1.8192 3.66701 1.506 4.13849 1.32176C4.53354 1.16739 4.97506 1.14084 5.54273 1.13669ZM5.54355 2.38406C4.99414 2.38987 4.77421 2.41062 4.59163 2.48199C4.33765 2.58132 4.11676 2.75015 3.95425 2.96916C3.80818 3.16585 3.72187 3.44056 3.48119 4.32609L3.1874 5.40167C4.04886 5.28631 5.16096 5.28631 6.54195 5.28631H10.4882C11.8701 5.28631 12.9822 5.28631 13.8428 5.40167L13.5498 4.32526C13.3083 3.43973 13.2228 3.16502 13.0768 2.96833C12.9143 2.74932 12.6934 2.58049 12.4394 2.48116C12.2568 2.40979 12.0361 2.38904 11.4866 2.38323C11.3687 2.6311 11.1829 2.84046 10.9508 2.98705C10.7187 3.13365 10.4499 3.21147 10.1754 3.2115H6.85566C6.58116 3.21147 6.31229 3.13365 6.08021 2.98705C5.84813 2.84046 5.66234 2.6311 5.54438 2.38323M6.85566 1.55165C6.80064 1.55165 6.74786 1.57351 6.70895 1.61242C6.67004 1.65133 6.64818 1.7041 6.64818 1.75913C6.64818 1.81416 6.67004 1.86693 6.70895 1.90584C6.74786 1.94475 6.80064 1.96661 6.85566 1.96661H10.1754C10.2304 1.96661 10.2832 1.94475 10.3221 1.90584C10.361 1.86693 10.3828 1.81416 10.3828 1.75913C10.3828 1.7041 10.361 1.65133 10.3221 1.61242C10.2832 1.57351 10.2304 1.55165 10.1754 1.55165H6.85566ZM3.28699 6.64406C2.53176 6.75361 2.16576 6.9528 1.93421 7.24991C1.70184 7.54619 1.59809 7.94871 1.67528 8.70892C1.75412 9.48573 2.00725 10.5016 2.36743 11.9456C2.59815 12.8652 2.7575 13.5026 2.94008 13.9789C3.11437 14.4387 3.28616 14.6819 3.50194 14.8504C3.71689 15.018 3.99409 15.1251 4.48374 15.184C4.99 15.2446 5.64564 15.2454 6.59507 15.2454H10.4376C11.3862 15.2454 12.0435 15.2446 12.5489 15.184C13.0386 15.1259 13.3158 15.018 13.5307 14.8504C13.7465 14.6819 13.9175 14.4387 14.0934 13.9789C14.2744 13.5026 14.4345 12.8652 14.6644 11.9456C15.0254 10.5016 15.2786 9.48573 15.3566 8.70892C15.4346 7.94871 15.33 7.54536 15.0985 7.24908C14.8669 6.9528 14.5009 6.75361 13.7449 6.64406C12.973 6.53285 11.9257 6.53119 10.4376 6.53119H6.59507C5.10701 6.53119 4.05965 6.53285 3.28782 6.64406" fill="#333333"/>
</svg>
